<?xml version="1.0" standalone="no"?>
<!DOCTYPE svg PUBLIC "-//W3C//DTD SVG 20010904//EN"
 "http://www.w3.org/TR/2001/REC-SVG-20010904/DTD/svg10.dtd">
<svg version="1.0" xmlns="http://www.w3.org/2000/svg"
 width="512.000000pt" height="341.000000pt" viewBox="0 0 512.000000 341.000000"
 preserveAspectRatio="xMidYMid meet">
<metadata>
Created by potrace 1.16, written by Peter Selinger 2001-2019
</metadata>
<g transform="translate(0.000000,341.000000) scale(0.100000,-0.100000)"
fill="#000000" stroke="none">
<path d="M493 3385 c76 -13 141 -25 143 -28 2 -2 5 -21 6 -41 1 -31 3 -34 11
-19 15 28 17 29 28 13 8 -13 10 -13 19 0 5 8 11 19 13 25 2 5 33 3 78 -7 81
-17 75 -19 149 45 l44 37 -52 0 -52 0 0 -40 c0 -22 -4 -40 -10 -40 -5 0 -10
18 -10 40 l0 40 -252 -1 -253 -1 138 -23z"/>
<path d="M965 3363 c-27 -25 -43 -42 -35 -38 8 4 4 -3 -10 -14 -14 -11 -30
-21 -35 -21 -6 0 -25 -16 -42 -35 -18 -19 -36 -35 -41 -35 -12 0 -52 -35 -52
-46 -1 -17 -90 -66 -90 -49 0 7 50 55 59 55 13 0 58 54 66 78 4 13 12 21 18
19 15 -5 47 11 47 23 0 14 -36 12 -48 -3 -11 -12 -101 -15 -120 -3 -5 3 -12 3
-16 -1 -9 -10 -7 -63 3 -63 5 0 11 -7 14 -14 4 -10 1 -13 -9 -9 -9 3 -14 -2
-14 -16 0 -20 -9 -25 -37 -22 -6 1 -14 -3 -17 -8 -3 -5 -15 -7 -26 -4 -11 3
-27 0 -35 -7 -9 -8 -33 -9 -72 -5 -81 9 -105 13 -110 19 -8 8 19 49 79 120 56
67 67 86 51 86 -5 1 -34 3 -66 6 -31 3 -57 2 -57 -3 0 -5 -28 -39 -62 -75 -49
-52 -71 -68 -101 -73 -26 -5 -42 -15 -52 -34 -13 -24 -14 -25 -15 -4 0 12 20
51 44 87 24 36 39 66 33 66 -13 -1 -86 -109 -100 -147 -6 -17 -17 -23 -38 -23
-40 0 -37 -18 4 -22 37 -3 38 -20 2 -30 -27 -7 -42 -20 -68 -61 -27 -41 -19
-72 18 -74 42 -2 206 -15 229 -17 11 -2 22 -9 24 -16 4 -10 -6 -11 -39 -7
-108 15 -249 19 -249 8 0 -6 15 -12 33 -12 21 -1 25 -3 12 -6 -32 -8 -45 -24
-45 -55 0 -26 2 -28 15 -18 12 10 15 7 20 -13 6 -23 9 -24 48 -15 46 10 117 2
117 -14 0 -6 9 -8 20 -5 11 3 20 0 20 -6 0 -7 5 -5 10 3 8 12 12 13 19 2 7
-11 9 -11 14 1 7 19 47 11 47 -9 0 -8 5 -14 10 -14 6 0 10 6 10 13 0 9 42 13
170 14 184 3 195 2 369 -53 19 -6 22 -4 16 7 -6 11 -5 12 6 2 16 -16 59 -17
59 -2 0 8 5 7 16 -2 9 -8 50 -14 102 -16 101 -4 112 -7 112 -28 0 -12 -13 -15
-62 -15 -35 0 -81 5 -102 10 -22 5 -45 6 -50 2 -6 -3 -22 -5 -36 -4 -60 5
-459 24 -604 28 -88 3 -163 7 -168 10 -4 3 -8 2 -8 -3 0 -4 -38 -8 -85 -7
l-85 1 0 -144 c0 -89 4 -143 10 -143 6 0 10 -10 10 -22 0 -13 7 -43 14 -68 14
-44 15 -41 17 100 2 80 4 119 6 88 2 -32 6 -58 9 -58 3 0 12 7 20 15 9 8 11
15 6 15 -15 0 -22 27 -15 60 4 25 13 32 47 41 22 6 48 17 57 25 14 12 18 12
31 -3 21 -25 33 -47 22 -40 -6 3 -6 -12 0 -40 l11 -45 11 59 c10 50 12 53 14
23 1 -19 6 -46 10 -60 6 -19 8 -11 9 34 1 57 11 72 16 24 1 -13 3 -29 4 -35 0
-7 5 -13 10 -13 6 0 11 24 13 53 l4 52 8 -62 c11 -78 25 -72 28 10 1 43 2 50
5 22 2 -22 6 -51 9 -64 5 -22 6 -23 19 -5 8 11 14 14 15 7 0 -7 5 -13 10 -13
6 0 10 27 10 60 0 35 4 60 10 60 6 0 10 -6 9 -12 -1 -7 -1 -37 0 -66 1 -74 21
-57 23 21 1 51 2 54 5 17 2 -25 6 -56 9 -70 5 -22 6 -23 16 -7 9 18 10 18 24
0 13 -17 13 -17 14 2 1 19 1 19 14 2 10 -12 16 -15 21 -7 5 8 11 8 21 -1 11
-9 14 -8 14 2 1 10 5 9 14 -4 13 -16 14 -16 20 -1 6 16 8 15 21 -2 8 -11 15
-14 15 -6 0 19 20 14 20 -5 1 -17 1 -17 14 0 13 17 14 17 20 0 6 -15 8 -15 16
-3 8 12 10 12 16 -3 6 -17 7 -17 19 0 11 15 13 15 20 -8 8 -23 8 -23 15 -4 8
19 8 19 18 -5 8 -18 11 -20 11 -7 1 9 5 17 10 17 5 0 11 -8 14 -17 3 -15 6
-14 15 7 l11 25 0 -27 c1 -15 6 -30 13 -34 7 -4 8 -3 4 4 -4 7 -3 20 3 29 8
16 10 14 16 -10 9 -35 25 -25 26 16 l2 32 4 -30 c6 -42 23 -56 24 -20 1 48 17
-1 18 -54 1 -24 4 -41 8 -37 4 4 13 -8 19 -26 7 -19 13 -25 13 -15 2 39 21 3
22 -41 2 -32 3 -37 6 -17 5 39 22 74 51 104 19 19 23 30 17 58 -9 52 5 212 19
207 6 -2 11 -21 11 -42 1 -20 4 -80 9 -132 4 -53 9 -134 10 -180 0 -47 4 -84
9 -82 4 1 18 2 32 2 23 0 25 3 19 28 -4 15 -14 34 -23 42 -13 12 -15 31 -11
105 4 75 7 87 17 70 11 -19 12 -19 22 5 5 14 10 18 11 10 0 -12 4 -11 15 4 9
12 15 15 15 7 0 -11 3 -11 15 -1 9 7 18 11 21 8 3 -3 8 -58 13 -122 4 -64 10
-118 13 -122 4 -3 16 -1 27 6 20 10 20 12 5 48 -10 23 -16 66 -16 115 1 78 6
101 20 82 8 -12 32 -13 50 -2 7 5 12 3 12 -4 0 -9 3 -9 14 0 11 9 15 9 19 -1
4 -10 7 -10 15 1 8 11 10 11 15 0 4 -12 7 -11 16 1 7 10 11 11 11 3 0 -19 18
-16 23 5 4 15 5 15 6 -1 0 -10 7 -17 14 -14 6 2 11 10 9 16 -1 7 2 10 8 6 6
-3 8 -10 5 -15 -3 -5 -1 -11 5 -15 5 -3 10 3 10 14 0 31 18 25 23 -6 4 -26 4
-26 6 4 1 37 -1 38 -144 48 -44 3 -94 9 -111 11 -53 9 -32 36 54 69 l77 29
-83 9 c-81 9 -83 10 -80 34 3 23 9 26 48 30 76 8 226 7 246 -1 19 -7 19 -8 -1
-23 l-20 -16 20 8 c117 46 277 95 288 88 6 -3 7 -2 4 4 -4 6 43 28 111 53 64
23 135 50 157 60 22 9 58 23 80 30 54 17 59 21 44 32 -10 6 -6 7 11 3 14 -3
44 1 67 9 44 15 53 13 53 -14 0 -10 -19 -25 -50 -38 -27 -12 -50 -24 -50 -28
0 -3 4 -2 10 1 16 10 79 15 84 7 2 -4 2 -12 -2 -18 -10 -14 -89 -54 -107 -54
-8 0 -15 -4 -15 -10 0 -14 1 -13 61 15 62 28 69 24 69 -45 -1 -36 -3 -41 -11
-27 -6 9 -7 27 -4 38 6 19 4 20 -27 15 -18 -3 -87 -23 -153 -44 l-120 -39 3
-36 c2 -22 -1 -37 -7 -37 -6 0 -11 -7 -11 -15 0 -8 3 -15 8 -15 4 0 6 -62 5
-137 -1 -76 0 -133 3 -126 3 7 12 9 20 6 8 -3 14 0 14 6 0 6 9 20 19 30 20 20
20 20 24 -7 3 -21 4 -19 6 10 2 52 19 57 24 6 3 -42 4 -42 5 9 2 65 18 78 21
16 2 -73 11 -64 12 13 l1 69 13 -70 12 -70 2 74 c1 90 11 88 17 -5 6 -91 14
-94 14 -5 0 46 4 70 10 66 6 -3 11 -21 11 -38 2 -31 2 -31 6 -4 7 42 23 22 25
-31 l1 -47 6 50 6 50 17 -50 c19 -54 18 -123 -2 -135 -7 -5 -12 -29 -11 -64 0
-50 -2 -56 -23 -62 -18 -4 -22 -11 -18 -30 3 -19 10 -24 31 -22 l26 3 0 -157
0 -158 -35 -1 c-19 -1 -49 0 -66 1 -18 1 -35 -3 -38 -8 -3 -5 -16 -7 -29 -5
-18 4 -25 15 -33 49 -10 42 -9 44 10 38 34 -10 43 -23 40 -52 -3 -23 -2 -24 4
-5 5 17 11 20 22 13 8 -5 24 -10 35 -9 16 0 13 6 -20 34 -60 53 -150 95 -186
88 -18 -3 -29 -1 -29 6 0 6 5 11 10 11 6 0 10 12 10 26 0 14 -4 23 -10 19 -6
-4 -10 10 -10 34 0 22 4 42 9 46 6 3 9 38 7 78 -2 68 -4 73 -29 81 l-27 10 0
193 0 193 -44 0 -43 0 5 -197 c3 -129 9 -201 16 -206 8 -5 6 -10 -5 -17 -13
-7 -15 -18 -9 -48 5 -27 3 -45 -7 -57 -7 -11 -13 -15 -14 -9 0 5 -4 0 -9 -11
-8 -19 -9 -19 -9 3 -1 12 4 22 9 22 6 0 10 21 10 46 l0 46 -37 -6 c-21 -3 -60
-6 -88 -7 l-50 -1 55 -8 c30 -5 58 -6 63 -3 11 7 38 -17 31 -29 -3 -5 -23 -7
-45 -3 -25 4 -39 3 -39 -4 0 -6 4 -11 9 -11 18 0 71 -65 71 -87 0 -33 28 -29
33 5 4 26 4 26 6 -4 0 -20 -5 -34 -14 -38 -8 -3 -15 -13 -15 -22 0 -15 -11
-16 -97 -10 -54 4 -113 8 -130 9 -18 1 -33 5 -33 10 0 4 4 7 8 7 5 0 37 27 71
60 58 56 69 80 36 80 -16 0 -125 -120 -125 -137 0 -21 -28 -15 -44 9 -9 12
-16 19 -16 15 0 -3 -24 8 -52 25 -47 28 -60 32 -120 30 -54 -2 -67 0 -62 11 4
11 -17 14 -108 16 -62 1 -115 7 -119 12 -3 6 -19 4 -41 -6 -32 -13 -37 -13
-42 1 -9 23 -8 24 14 24 32 0 23 17 -12 23 -18 3 -157 6 -308 6 -151 1 -301 4
-332 7 -48 5 -58 4 -58 -9 0 -16 6 -16 370 -22 332 -5 317 -4 298 -19 -10 -7
-15 -16 -11 -19 3 -4 -8 -7 -26 -7 -28 0 -31 -3 -26 -23 4 -15 1 -28 -9 -36
-11 -9 -16 -10 -16 -2 0 19 -31 12 -56 -11 -27 -26 -31 -48 -9 -48 8 0 15 7
15 15 0 9 9 15 23 15 13 0 17 -3 11 -8 -6 -4 -13 -33 -16 -65 -3 -32 -1 -52 3
-45 7 10 11 10 21 0 9 -9 9 -12 -3 -12 -12 0 -12 -2 1 -10 12 -7 8 -11 -17
-16 -18 -4 -33 -13 -33 -20 0 -24 -30 -15 -31 9 -1 12 -5 -14 -10 -58 -8 -78
-9 -81 -51 -117 -24 -21 -39 -38 -35 -38 5 0 -5 -19 -22 -42 -21 -30 -29 -50
-25 -65 7 -25 34 -32 34 -9 0 18 55 26 97 13 29 -9 33 -15 33 -43 0 -37 2 -36
-125 -53 -45 -6 -55 -10 -41 -16 11 -5 43 -3 76 3 73 16 87 15 87 -3 0 -11
-13 -15 -51 -16 -41 0 -46 -2 -29 -9 32 -13 211 -24 195 -12 -14 10 111 27
127 17 10 -6 18 32 13 58 -3 13 -14 17 -47 17 -61 0 -69 -20 -8 -21 48 -1 48
-1 -22 -15 -70 -13 -121 -17 -97 -7 6 2 10 9 6 14 -3 5 9 9 27 9 37 0 29 16
-11 23 -14 2 7 5 45 6 106 3 128 19 28 20 -46 1 -83 5 -83 10 0 13 38 21 103
21 l57 0 0 49 c0 46 -1 48 -25 43 -14 -2 -25 -9 -25 -16 0 -6 -5 -4 -10 4 -6
9 -10 10 -10 3 0 -6 -3 -18 -6 -26 -4 -11 2 -17 18 -20 13 -2 2 -5 -23 -6
l-46 -1 -6 47 c-3 27 -3 51 0 55 2 5 33 8 69 8 51 0 64 3 64 16 0 12 -12 15
-65 13 -36 -1 -68 1 -72 4 -3 4 26 7 65 7 57 0 72 3 72 15 0 8 -9 15 -19 15
-11 0 -23 5 -26 10 -3 6 3 10 13 10 27 0 30 21 25 161 -4 110 -3 121 12 115 9
-3 25 -6 36 -6 16 0 19 -7 19 -49 0 -34 4 -51 15 -55 10 -4 15 1 15 14 0 11 4
20 9 20 5 0 7 -10 5 -22 -2 -13 -2 -17 2 -10 11 23 24 12 18 -15 -8 -35 -24
-54 -24 -29 0 9 -4 15 -9 12 -5 -4 -11 0 -14 6 -9 25 -15 2 -21 -77 -13 -172
-18 -215 -27 -221 -13 -8 1 -127 15 -136 6 -4 25 -8 41 -8 28 -1 29 -2 8 -10
-33 -13 -31 -50 3 -50 37 0 134 -30 134 -41 0 -5 -11 -9 -24 -9 -31 0 -42 -15
-18 -25 33 -14 220 -17 333 -6 155 15 579 24 579 12 0 -5 14 -23 31 -40 l31
-31 -29 0 c-15 0 -34 -4 -42 -9 -14 -9 28 -20 135 -36 l41 -6 11 -62 c14 -73
56 -146 97 -167 21 -10 59 -15 126 -14 87 1 102 4 145 29 27 15 93 71 146 123
l98 96 28 -28 c60 -57 148 -55 195 6 21 26 32 30 85 35 34 3 59 10 56 14 -3 5
2 9 10 9 8 0 18 -5 21 -10 4 -6 10 -8 15 -5 5 3 12 -11 16 -32 4 -21 10 -45
15 -55 13 -25 -12 -30 -171 -35 -147 -4 -245 -17 -255 -34 -4 -5 -1 -9 4 -9 6
0 11 -4 11 -10 0 -5 -10 -10 -22 -10 -17 0 -19 -3 -10 -12 8 -8 90 -13 279
-16 282 -4 365 1 386 22 15 15 166 30 184 18 7 -4 31 -5 55 -3 l43 5 -45 7
c-25 4 3 5 61 2 116 -6 234 5 189 17 -21 6 -18 8 23 15 31 5 57 3 73 -4 28
-12 68 -15 61 -3 -3 4 35 8 84 9 l89 2 0 -30 c0 -19 -5 -29 -15 -29 -8 0 -15
5 -15 10 0 6 -43 9 -112 8 l-113 -2 100 -3 c62 -3 102 -8 107 -16 8 -13 188
-14 210 -1 7 5 26 8 43 7 21 -1 23 0 7 4 -12 2 -20 8 -17 13 3 5 -2 49 -11 98
-20 103 -15 138 21 144 21 4 23 3 13 -9 -10 -13 -7 -15 22 -13 19 2 42 0 50
-3 38 -15 102 -25 175 -26 44 -1 88 -4 97 -7 16 -5 18 3 18 65 l0 71 -55 0
c-30 0 -55 5 -55 10 0 6 7 10 15 10 12 0 13 4 5 19 -5 11 -11 41 -11 68 -1 43
-2 45 -9 18 l-8 -30 -1 35 c0 19 4 42 9 50 8 13 10 13 10 -1 0 -9 10 -24 21
-35 l22 -19 -18 35 c-10 19 -23 38 -28 42 -8 4 -7 22 1 58 7 28 12 70 12 92
l0 40 45 -25 45 -26 0 29 c0 23 -16 42 -95 109 -53 46 -103 81 -115 81 -19 0
-21 -5 -18 -47 2 -27 7 -46 12 -45 14 6 26 -20 26 -54 0 -19 -6 -34 -15 -38
-8 -3 -15 -17 -15 -31 0 -52 -18 -22 -29 50 -7 41 -17 75 -22 75 -11 0 -12 11
6 -106 17 -109 27 -209 19 -181 -8 25 -19 21 -22 -10 -3 -35 -12 -43 -12 -10
0 14 -4 29 -10 32 -6 3 -7 -1 -4 -9 3 -9 1 -16 -5 -16 -6 0 -11 16 -11 35 0
36 -15 48 -23 18 -2 -10 -4 -1 -3 19 1 21 6 38 11 38 6 0 5 4 -2 8 -6 4 -11
14 -10 22 2 15 -12 27 -15 13 0 -5 -8 -13 -17 -20 -11 -9 -12 -12 -3 -13 24 0
9 -45 -15 -48 -22 -3 -28 6 -23 37 3 24 -10 61 -21 61 -8 0 -8 -4 -1 -13 6 -7
7 -26 3 -47 -6 -27 -12 -34 -26 -32 -16 3 -17 1 -6 -12 10 -12 18 -13 32 -5
30 16 22 1 -8 -16 -27 -15 -27 -16 -3 -10 25 6 25 6 5 -11 -18 -15 -18 -16 -2
-10 10 3 21 6 23 6 2 0 4 9 4 20 0 47 52 -4 90 -89 11 -26 5 -61 -12 -61 -5 0
-7 7 -4 16 5 14 4 15 -9 4 -11 -9 -12 -16 -5 -25 8 -9 5 -14 -10 -18 -20 -5
-29 -37 -10 -37 6 0 10 8 10 18 0 11 5 7 16 -13 14 -27 14 -30 -2 -42 -34 -25
-44 -16 -44 36 0 30 5 51 12 53 7 3 2 7 -10 10 -21 6 -22 3 -23 -50 0 -47 -2
-53 -10 -33 -9 23 -10 23 -29 6 -18 -17 -19 -16 -25 6 -9 37 -1 455 8 449 5
-3 15 6 23 20 l15 25 -6 -27 c-5 -28 9 -39 18 -15 3 6 6 -12 6 -40 1 -29 6
-53 11 -53 6 0 10 11 10 25 0 22 2 24 20 13 13 -9 27 -9 46 -3 37 13 45 38 10
29 -75 -19 -98 22 -94 167 3 112 0 107 58 100 6 0 10 -11 10 -23 0 -23 1 -22
13 2 9 17 20 25 37 24 38 -2 38 -2 43 -26 3 -22 4 -22 15 4 10 24 15 27 36 18
28 -10 36 2 36 52 0 30 -1 31 -40 25 -22 -3 -40 -2 -40 3 0 4 -18 1 -41 -6
-26 -9 -46 -11 -57 -5 -9 5 -26 5 -38 1 -29 -11 -34 2 -34 95 0 108 6 126 56
163 30 24 45 44 50 66 l6 33 111 12 c155 17 187 22 187 33 0 5 -12 7 -27 4
-76 -16 -278 -34 -281 -25 -2 5 -16 24 -30 41 -17 20 -21 30 -11 26 9 -3 22
-2 30 4 9 6 -4 7 -38 3 -36 -5 -53 -3 -53 4 0 6 7 11 15 11 13 0 15 22 15 141
0 77 4 138 8 135 5 -3 10 -30 11 -61 1 -31 6 -68 12 -81 5 -14 9 -46 9 -70 0
-57 18 -49 19 9 1 23 5 89 10 147 l8 105 2 -92 c1 -111 20 -127 23 -20 l1 72
8 -80 c10 -117 20 -175 30 -175 5 0 9 10 10 23 1 31 9 81 15 86 4 4 8 -44 5
-61 0 -5 4 -8 9 -8 6 0 11 17 11 38 1 26 3 29 6 12 2 -14 7 -32 10 -40 3 -8 5
-19 4 -24 -2 -8 98 -1 147 11 l22 5 0 334 0 334 -260 0 -260 0 0 -45 c0 -44 0
-44 -42 -55 -24 -6 -58 -15 -77 -20 -19 -5 -38 -7 -43 -4 -4 3 -8 32 -8 65 0
90 -18 71 -22 -23 -6 -166 3 -628 12 -628 6 0 10 20 10 45 0 39 3 45 25 51 31
8 33 21 3 20 l-23 -1 -3 216 c-2 180 0 218 12 228 14 12 114 40 144 41 10 0
12 -50 10 -232 l-3 -233 -48 -7 c-69 -9 -71 -18 -3 -11 l56 6 0 -77 c0 -42 3
-76 8 -76 4 0 7 21 7 48 1 26 4 67 7 92 4 25 7 76 7 114 1 38 4 66 7 63 4 -3
6 -46 5 -94 0 -62 2 -84 10 -76 6 6 9 35 7 67 -1 31 0 56 5 56 4 0 7 -24 7
-53 0 -29 5 -58 11 -64 6 -6 9 -38 7 -77 -2 -38 1 -68 7 -70 28 -10 -16 -21
-88 -22 -89 -1 -85 3 -88 -80 l-2 -42 -112 -12 c-62 -7 -120 -10 -131 -7 -11
3 -5 5 16 6 19 1 53 6 75 11 31 7 23 8 -37 4 -73 -4 -78 -3 -78 16 0 11 -7 20
-15 20 -8 0 -15 -8 -15 -17 0 -15 2 -16 10 -3 8 13 10 13 10 -1 0 -22 -29 -33
-36 -14 -3 8 -3 19 1 25 3 5 2 10 -4 10 -5 0 -12 -8 -14 -17 -4 -17 -5 -17 -6
-1 -1 24 -31 11 -31 -13 0 -10 -4 -19 -10 -19 -5 0 -10 9 -10 21 0 16 -5 20
-27 17 -18 -2 -28 -9 -28 -20 0 -9 -4 -20 -8 -24 -4 -4 -7 2 -7 14 0 26 -14
27 -107 11 -65 -11 -65 -12 -66 -67 -1 -22 -2 -23 -14 -6 -14 19 -15 17 -15
-51 0 -83 0 -83 29 -87 22 -2 33 -16 66 -79 22 -42 41 -96 44 -122 7 -55 14
-63 45 -45 13 7 27 11 32 10 5 -2 13 3 17 10 7 10 9 10 9 0 0 -9 5 -10 18 -4
9 5 23 7 30 5 6 -3 12 0 12 5 0 5 16 8 35 5 19 -3 35 -1 35 4 0 5 17 9 37 9
20 0 38 5 40 11 5 13 -59 28 -82 20 -8 -4 -17 -1 -21 5 -4 7 -9 6 -15 -3 -7
-11 -9 -11 -9 -1 0 10 -4 9 -16 -2 -19 -20 -34 -12 -35 17 -1 17 -2 18 -6 4
-2 -9 -8 -15 -13 -12 -5 3 -15 -2 -23 -10 -17 -16 -42 -11 -51 11 -3 7 1 35 9
61 8 27 15 81 15 122 0 41 3 71 8 67 9 -10 9 -9 12 -108 3 -78 4 -80 10 -33
l7 50 3 -45 3 -45 6 40 5 40 6 -55 c6 -45 7 -35 8 53 1 63 6 107 12 107 6 0
11 -24 12 -52 1 -51 2 -51 7 -13 l5 40 6 -55 7 -55 2 75 c2 54 5 68 11 50 8
-24 8 -24 9 -3 1 15 6 21 15 17 8 -3 16 3 19 15 3 14 13 21 29 21 17 0 19 3 9
9 -21 14 5 21 152 40 43 6 83 11 88 11 5 0 9 -22 9 -49 0 -30 5 -51 12 -53 15
-5 24 -145 14 -211 -6 -41 -8 -43 -39 -41 -17 1 -39 -2 -49 -7 -12 -7 -18 -6
-18 1 0 6 -5 8 -12 4 -11 -7 -53 -10 -60 -4 -2 1 -13 3 -25 4 -16 2 -23 -3
-23 -15 0 -20 43 -31 75 -19 12 4 28 4 37 -1 10 -6 26 -5 42 1 19 7 29 6 41
-6 11 -12 15 -12 16 -2 0 7 4 4 9 -7 20 -46 6 -295 -16 -295 -8 0 -14 -11 -14
-25 0 -15 6 -25 14 -25 19 0 32 -84 18 -113 -6 -12 -13 -57 -16 -100 -4 -55
-13 -92 -31 -128 l-26 -51 -176 7 c-133 6 -177 5 -183 -4 -4 -7 -38 -15 -76
-17 -38 -3 -93 -9 -123 -15 -99 -17 -97 -17 -104 53 -6 71 -27 105 -80 131
-76 38 -157 -10 -217 -127 l-33 -66 -106 6 c-58 3 -131 10 -161 16 -52 9 -177
11 -190 3 -4 -2 -67 -6 -141 -9 -85 -3 -129 -2 -119 4 8 5 40 12 71 16 l56 6
-26 26 c-24 24 -24 26 -6 33 19 7 18 8 -2 8 -13 1 -23 -5 -23 -11 -1 -7 -8 0
-17 17 -11 20 -12 30 -4 33 13 4 15 62 1 62 -5 0 -7 -7 -4 -15 4 -8 1 -15 -6
-15 -6 0 -8 -6 -4 -12 4 -7 -3 -3 -15 10 -22 23 -37 30 -26 12 9 -15 -7 -12
-29 5 -11 8 -39 15 -63 15 -52 0 -103 -40 -127 -100 -11 -28 -22 -40 -36 -40
-20 0 -20 4 -14 78 4 42 12 86 17 97 6 11 11 24 12 28 0 5 10 16 21 25 12 9
27 27 33 40 11 20 9 22 -14 23 -14 1 -31 2 -37 3 -16 1 -22 55 -13 124 6 51 7
52 41 52 19 0 34 5 34 10 0 6 -4 10 -8 10 -9 0 -7 104 3 143 5 17 3 27 -4 27
-7 0 -11 20 -11 50 0 28 5 50 10 50 6 0 10 11 10 24 0 35 25 52 46 32 12 -13
19 -14 30 -5 11 9 14 -17 16 -162 l3 -174 35 1 c19 1 41 2 48 3 14 1 17 61 2
61 -5 0 -10 8 -10 18 0 14 2 14 9 3 7 -11 10 -7 14 15 2 16 5 1 6 -33 0 -37 5
-63 12 -63 7 0 8 23 3 70 l-7 70 34 14 c22 9 40 11 51 5 13 -7 18 -4 23 11 9
30 -5 47 -21 25 -13 -17 -14 -17 -20 -1 -5 13 -9 15 -15 5 -13 -22 -41 8 -29
31 6 10 11 52 12 92 l1 73 7 -55 6 -55 8 53 c5 29 13 55 17 58 5 3 9 1 9 -5 0
-13 60 18 67 35 3 8 9 12 13 9 5 -3 11 -1 15 5 3 5 25 10 48 11 46 0 134 16
102 18 -49 2 -189 -20 -197 -31 -6 -11 -8 -11 -8 0 0 10 -5 10 -21 1 -17 -9
-20 -8 -17 3 3 7 22 16 44 19 37 6 38 6 7 8 -24 1 -33 6 -34 19 0 13 -3 12
-11 -5 -13 -26 -28 -30 -28 -8 0 8 -4 15 -10 15 -5 0 -10 -7 -10 -16 0 -8 -5
-12 -10 -9 -6 4 -7 11 -4 17 5 7 -2 9 -20 6 -15 -3 -41 -1 -57 5 l-29 11 0
244 c0 192 3 250 15 278 l15 36 -33 -7 c-100 -22 -160 -60 -126 -81 6 -3 9
-24 7 -45 -2 -21 0 -40 3 -41 4 -2 10 -94 14 -205 6 -150 11 -200 20 -197 8 3
12 -9 13 -36 2 -43 -8 -48 -39 -19 -9 10 -31 20 -49 24 l-32 7 6 92 c3 50 6
161 7 245 0 132 3 157 17 168 16 12 16 13 0 7 -15 -5 -16 3 -11 83 3 48 9 92
13 97 23 24 728 258 815 271 11 1 24 3 28 4 5 0 5 5 2 11 -4 6 1 7 11 3 11 -4
15 -3 11 4 -4 7 0 9 10 7 10 -3 63 11 118 30 93 32 97 35 53 33 -25 -1 -44 -6
-40 -11 3 -6 -3 -6 -14 -1 -31 13 -108 13 -124 0 -21 -18 -273 -106 -321 -112
-21 -3 -39 -10 -39 -14 0 -5 -12 -9 -27 -9 l-28 0 30 15 c17 8 100 41 185 74
l155 60 -117 1 c-65 0 -118 -4 -118 -8 0 -4 -23 -16 -51 -26 -28 -10 -58 -26
-67 -36 -18 -18 -179 -60 -248 -65 -23 -1 -47 -6 -53 -9 -6 -4 -11 -5 -11 -1
0 7 124 65 139 65 9 0 41 60 41 76 0 14 -60 -4 -191 -56 -83 -33 -152 -60
-154 -60 -2 0 -2 27 -2 60 l2 60 -71 0 c-62 0 -83 -5 -160 -40 -49 -22 -97
-45 -107 -51 -46 -26 -162 -28 -236 -4 -12 3 -21 2 -21 -2 0 -5 34 -15 75 -22
74 -14 93 -31 32 -31 -60 0 -187 24 -187 36 0 12 48 47 120 88 l45 26 -68 0
c-49 0 -79 -6 -109 -21 -31 -16 -59 -21 -107 -20 -36 0 -73 -4 -81 -9 -13 -8
-13 -10 -1 -10 28 0 -4 -19 -34 -21 -33 -2 -166 19 -175 27 -2 3 2 9 10 14 68
39 68 39 -200 39 l-255 0 -50 -46z m303 -37 c-4 -6 -8 -27 -8 -47 0 -42 27
-69 67 -69 39 0 53 26 53 95 0 51 3 63 14 59 28 -11 49 -69 44 -118 -5 -41 -3
-47 16 -51 11 -2 50 -11 86 -20 36 -8 139 -30 230 -49 414 -87 579 -124 545
-125 -11 -1 -51 6 -90 14 -45 9 -73 11 -79 5 -6 -6 -20 -10 -32 -10 -28 0 -84
-31 -84 -47 0 -13 -81 -29 -104 -20 -7 3 -18 1 -24 -5 -6 -6 -12 -6 -16 1 -4
6 -2 11 4 11 6 0 18 16 26 35 12 30 19 35 47 35 18 0 38 -5 45 -12 9 -9 21 -7
52 7 22 10 37 22 33 26 -4 4 -33 12 -63 17 -30 6 -63 14 -72 17 -11 4 -19 2
-19 -4 -1 -6 -2 -17 -3 -23 -1 -13 -5 -14 -46 -17 -13 -1 -17 -6 -14 -16 6
-14 -19 -21 -50 -16 -4 1 -13 -2 -20 -7 -6 -5 -41 -13 -78 -17 -60 -6 -67 -5
-62 9 4 11 20 16 48 17 31 1 35 3 17 8 -20 5 -14 11 48 39 39 18 71 37 71 41
0 5 -18 11 -39 15 -29 4 -52 0 -95 -19 -31 -14 -63 -25 -71 -25 -8 0 -15 -4
-15 -9 0 -9 -74 -31 -112 -34 -10 -1 -18 -4 -18 -8 0 -8 -54 -5 -92 6 -53 14
-31 35 112 113 44 24 43 30 -11 41 -43 10 -55 9 -69 -4 -9 -8 -21 -15 -26 -15
-5 0 0 7 10 15 14 11 16 15 5 15 -8 0 -23 -7 -33 -15 -11 -8 -26 -15 -33 -15
-8 0 -26 -11 -41 -25 -15 -14 -31 -25 -37 -25 -5 0 -21 -9 -34 -19 -22 -17
-23 -23 -23 -142 0 -103 -2 -114 -8 -64 -4 33 -8 88 -9 122 l-1 62 -36 -24
c-69 -47 -149 -24 -180 52 -9 21 -21 33 -34 33 -28 0 -30 -11 -10 -53 18 -36
18 -38 1 -47 -17 -9 -43 -7 -99 5 -20 5 -22 10 -17 35 5 23 3 30 -9 30 -9 0
-16 5 -16 11 0 6 8 8 19 4 11 -3 23 0 27 6 4 8 3 9 -4 5 -7 -4 -12 -3 -12 3 0
22 24 24 38 3 8 -12 20 -22 27 -22 12 0 29 35 26 54 -1 5 4 13 11 17 10 7 10
9 1 9 -26 0 -11 26 35 60 25 19 49 36 53 38 13 6 16 -48 3 -59 -25 -20 -37
-77 -24 -110 18 -43 65 -79 105 -79 48 0 51 15 8 37 -39 21 -73 73 -73 113 0
33 35 90 56 90 9 0 24 10 34 23 19 22 19 22 8 -15 -16 -55 11 -111 67 -138 48
-23 46 -23 81 -10 l26 10 -42 23 c-50 26 -80 75 -80 130 0 30 7 45 32 70 l32
32 6 -30 c4 -16 3 -34 -2 -39z m-214 38 c4 -11 -10 -34 -44 -70 -27 -29 -50
-51 -50 -48 0 13 -53 -33 -61 -53 -5 -14 -14 -21 -23 -17 -8 3 -28 -8 -45 -25
-18 -17 -36 -31 -41 -31 -5 0 -12 -4 -15 -10 -3 -6 1 -7 12 -4 10 3 5 -3 -12
-12 -16 -10 -34 -17 -39 -16 -5 2 -13 -3 -18 -10 -8 -10 -11 -10 -15 0 -2 6
-14 12 -26 12 -20 0 -20 1 4 26 13 14 25 20 27 15 2 -6 32 13 66 42 34 28 84
70 111 92 27 22 71 59 99 83 56 47 61 49 70 26z m1370 -1646 c5 -10 7 -10 12
0 8 18 20 15 21 -7 1 -10 -8 -23 -21 -29 -12 -5 -27 -25 -33 -46 -10 -34 -3
-50 12 -25 5 7 12 4 20 -8 9 -13 12 -43 8 -106 l-6 -88 -71 6 c-77 7 -92 9
-148 20 -34 6 -54 25 -28 25 6 0 10 26 10 58 0 36 6 66 15 78 8 10 15 35 15
54 0 19 4 40 8 46 4 6 34 12 67 13 85 3 85 3 85 13 0 13 28 9 34 -4z m-760
-190 c23 -32 20 -74 -6 -98 -62 -58 -142 27 -92 98 10 15 25 22 49 22 24 0 39
-7 49 -22z m2057 -147 c48 -49 38 -142 -21 -188 -26 -21 -60 -14 -91 16 -35
35 -36 43 -7 56 32 14 33 33 4 41 -14 3 -26 13 -26 20 0 12 4 12 20 4 26 -14
40 -6 33 20 -6 23 -14 25 -31 8 -8 -8 -12 -9 -12 -1 0 18 51 53 77 53 14 0 37
-13 54 -29z m-721 -100 c0 -16 -171 -173 -204 -186 -49 -21 -189 -30 -224 -16
-32 13 -66 67 -77 121 -3 19 -9 43 -11 53 -5 15 5 17 98 18 57 1 137 5 178 9
112 10 240 11 240 1z"/>
<path d="M3765 3396 c-44 -19 -361 -116 -380 -116 -14 0 -13 -3 2 -19 18 -20
19 -20 78 0 33 11 78 21 100 22 22 1 42 4 45 7 10 11 61 30 79 30 10 0 23 -11
29 -25 10 -22 9 -27 -6 -31 -61 -20 -124 -48 -114 -52 24 -8 12 -24 -14 -18
-16 4 -51 -1 -90 -14 l-64 -22 0 -74 c0 -52 -4 -74 -12 -74 -10 0 -10 -2 0 -9
11 -6 13 -48 12 -187 -2 -205 -2 -236 6 -243 3 -4 5 8 4 24 -6 83 1 249 9 236
8 -12 11 -9 16 12 l7 27 20 -22 c16 -19 21 -20 28 -8 6 8 10 18 10 23 0 4 7 7
15 7 11 0 15 -12 16 -47 0 -27 4 -68 9 -93 8 -41 8 -37 8 35 0 119 -1 114 27
109 22 -4 25 -1 26 23 0 16 4 37 9 48 7 16 9 12 9 -18 1 -23 5 -36 11 -32 6 4
11 -8 11 -27 1 -18 3 -40 4 -48 1 -8 3 -48 4 -88 2 -122 21 -74 21 54 0 74 4
113 10 109 6 -3 10 2 11 12 1 13 3 11 9 -7 4 -14 8 -74 9 -133 1 -69 5 -106
11 -102 6 4 10 55 10 120 0 65 4 116 10 120 6 3 7 17 4 31 -4 17 -1 26 10 30
13 5 16 21 16 79 0 62 3 73 18 78 18 4 19 -6 25 -146 4 -83 7 -181 7 -218 0
-37 4 -69 10 -71 5 -1 13 -29 18 -60 8 -49 6 -58 -7 -61 -34 -10 42 -6 114 4
75 11 75 12 76 43 2 30 2 30 6 4 4 -23 9 -28 34 -28 28 0 29 1 30 53 l2 52 10
-47 c9 -44 13 -48 39 -48 28 0 28 1 30 63 l2 62 3 -57 c4 -53 6 -58 27 -58 24
0 36 21 36 65 0 29 -18 5 -23 -30 -3 -21 -4 -16 -6 17 -1 34 3 47 12 45 7 -1
13 10 15 26 2 15 7 25 12 22 8 -5 13 24 23 135 2 19 5 -12 7 -70 l4 -105 6 70
6 70 2 -65 c2 -44 5 -60 11 -50 7 10 11 1 14 -30 2 -25 4 123 5 328 1 204 0
372 -4 372 -12 0 -458 -133 -564 -168 -113 -38 -115 -39 -137 -82 -16 -31 -24
-39 -28 -27 -4 8 4 31 17 51 20 30 34 39 108 61 101 31 454 143 490 155 21 7
17 9 -23 9 -47 1 -190 -37 -370 -99 -99 -33 -108 -35 -124 -19 -14 14 -6 39
12 39 8 0 26 5 42 12 15 6 32 10 36 9 4 0 17 4 28 9 11 6 52 20 92 30 l72 19
-110 0 c-69 0 -121 -5 -140 -13z"/>
<path d="M3280 3238 c-189 -57 -575 -183 -641 -209 -69 -27 -76 -32 -71 -54
l4 -24 52 21 c28 11 57 21 64 21 6 0 12 4 12 8 0 15 99 50 180 64 14 2 51 13
83 23 31 11 57 15 57 10 0 -5 6 -3 14 4 8 7 12 17 9 22 -3 4 5 5 17 1 15 -5
20 -4 16 4 -4 6 7 14 26 19 18 5 35 5 36 0 2 -4 8 -8 13 -8 6 0 7 5 4 10 -3 6
3 10 14 10 10 0 21 5 23 11 4 12 55 31 130 49 29 7 48 18 48 26 0 18 -10 17
-90 -8z"/>
<path d="M3110 3044 c-131 -43 -264 -77 -307 -78 -23 -1 -45 -5 -50 -10 -4 -5
3 -6 17 -2 23 6 24 5 4 -5 -42 -21 -46 -50 -43 -296 2 -128 6 -238 9 -244 4
-6 22 -9 41 -7 l34 3 6 90 5 90 2 -87 c1 -49 6 -88 11 -88 14 0 18 28 20 165
1 71 4 132 7 134 2 2 4 -62 4 -142 0 -91 4 -147 10 -147 9 0 15 122 10 220 0
19 3 46 9 60 8 19 10 5 10 -67 1 -95 20 -145 22 -56 0 26 4 71 8 98 8 54 16
48 30 -25 8 -42 9 -40 10 34 1 44 3 77 6 74 3 -3 12 -50 19 -104 l14 -99 1 93
c1 115 18 126 34 22 3 -14 5 -6 6 20 1 25 6 54 10 64 7 19 8 19 13 -2 8 -28
28 -29 28 -2 0 18 2 19 20 8 15 -10 23 -10 28 -2 4 7 16 13 27 15 19 4 20 13
23 152 2 114 0 147 -10 146 -7 0 -47 -11 -88 -25z"/>
<path d="M1860 2691 c0 -5 6 -12 13 -14 10 -4 10 -6 0 -6 -8 -1 -12 -13 -12
-28 2 -24 2 -25 6 -5 7 38 23 14 23 -36 0 -26 5 -76 10 -112 5 -36 10 -100 11
-142 1 -43 6 -75 10 -72 5 3 8 15 8 27 -2 56 15 350 19 337 3 -8 9 -17 13 -20
4 -3 9 -81 10 -173 1 -118 5 -167 13 -164 7 2 12 69 14 208 l2 205 -70 2 c-40
2 -70 -1 -70 -7z"/>
<path d="M1539 2653 c-52 -18 -104 -33 -116 -33 -13 0 -23 -4 -23 -10 0 -6 26
-10 58 -10 33 0 93 -3 135 -6 l75 -7 5 29 4 29 2 -27 c2 -44 19 -33 24 15 l4
42 1 -47 c1 -27 6 -48 11 -48 6 0 12 21 14 48 l3 47 2 -47 c2 -57 21 -65 23
-10 1 20 3 29 6 20 7 -29 23 -20 23 12 0 29 -2 30 -42 31 -24 0 -59 1 -79 3
-21 2 -74 -11 -130 -31z"/>
<path d="M5040 2533 c-68 -6 -104 -15 -94 -21 11 -9 31 -39 45 -72 7 -16 9
-66 5 -140 -8 -176 -6 -313 6 -327 6 -7 16 -13 22 -13 6 0 5 4 -3 9 -11 7 -11
9 0 13 11 4 13 32 10 139 -9 344 -8 349 55 349 24 0 34 5 34 15 0 12 -13 15
-57 16 -64 1 -62 4 10 14 26 3 47 10 47 16 0 9 -11 9 -80 2z"/>
<path d="M3590 2523 c-39 -7 -43 -17 -45 -95 -1 -56 3 -81 18 -106 17 -29 19
-45 13 -120 -4 -48 -8 -120 -10 -159 l-4 -73 69 0 69 0 -2 180 c-1 99 1 182 3
185 3 2 21 5 42 7 20 1 37 6 37 11 0 4 -14 7 -32 5 -29 -3 -32 0 -35 30 l-4
34 43 -3 c24 -1 49 -7 56 -13 10 -7 16 -5 23 5 16 26 10 29 -56 29 l-65 0 0
34 c0 36 1 35 -80 50 -8 2 -26 1 -40 -1z"/>
<path d="M3277 2463 c-33 -4 -38 -7 -34 -24 3 -11 -1 -26 -10 -34 -11 -12 -12
-15 -1 -16 7 -1 -12 -7 -42 -15 l-55 -13 53 5 52 5 0 -41 c0 -22 5 -40 10 -40
6 0 10 -40 10 -100 0 -82 -3 -100 -15 -101 -58 -5 -81 -4 -92 3 -6 5 -14 4
-18 -2 -11 -17 -4 -19 63 -21 l62 -2 0 -78 c0 -44 4 -79 8 -79 4 0 25 9 47 20
22 11 45 20 52 20 14 0 17 46 13 231 l-2 105 35 27 c49 37 61 75 33 109 -20
25 -83 50 -116 46 -8 -1 -32 -3 -53 -5z"/>
<path d="M90 2240 c-8 -4 -25 -12 -37 -18 -13 -7 -30 -12 -38 -12 -13 0 -15
-39 -15 -299 l0 -298 32 6 c40 8 55 45 16 39 -22 -3 -23 1 -29 67 -9 112 -9
343 1 315 5 -17 8 -19 9 -7 2 34 21 16 21 -20 0 -46 6 -40 13 14 5 41 4 42
-27 46 -29 4 -29 4 7 5 20 1 37 6 37 11 0 5 -11 8 -25 5 -16 -3 -25 0 -26 8 0
7 -2 27 -3 45 -2 20 1 34 10 37 9 3 14 -7 17 -37 l4 -42 1 48 c2 45 3 48 25
41 12 -3 19 -3 15 1 -4 4 -3 16 3 27 13 23 9 28 -11 18z"/>
<path d="M235 2230 c3 -5 32 -10 64 -10 l58 0 6 -135 c3 -75 4 -142 1 -150 -4
-11 -22 -15 -60 -15 -57 0 -55 2 -58 -57 -1 -10 -5 -21 -10 -24 -5 -4 -5 -12
-1 -19 4 -6 9 -46 11 -88 4 -64 8 -80 29 -102 33 -35 32 -40 -12 -40 -26 0
-34 -3 -24 -9 8 -5 20 -7 27 -4 6 2 15 0 19 -6 3 -6 27 -11 53 -10 38 1 42 2
22 9 -18 6 -4 9 50 10 41 2 109 6 150 10 68 7 63 8 -50 7 -124 -1 -125 -1
-122 22 1 12 9 29 17 37 8 9 15 30 15 47 1 18 3 66 5 107 3 41 2 68 -2 60 -11
-27 -41 133 -44 237 -2 56 0 106 4 109 17 17 2 22 -74 23 -52 1 -78 -2 -74 -9z"/>
<path d="M3350 1924 c-70 -23 -236 -112 -226 -121 3 -3 21 -5 42 -5 25 0 33
-3 23 -9 -9 -5 27 -7 89 -5 85 4 106 8 117 23 12 15 11 58 -1 72 -7 8 -57 -32
-61 -50 -6 -23 -19 -24 -39 -5 -12 13 -12 17 2 30 8 9 25 16 37 16 12 0 40 12
62 25 46 28 75 34 56 11 -10 -12 -5 -13 31 -10 24 3 51 7 61 9 29 5 19 -8 -50
-65 -48 -40 -77 -57 -107 -61 l-41 -6 44 -1 c46 -2 50 1 186 122 l40 35 -125
0 c-69 0 -132 -3 -140 -5z"/>
<path d="M3765 1910 l-20 -8 20 -8 c11 -4 30 -14 42 -22 21 -13 21 -16 8 -50
-8 -21 -16 -46 -18 -57 -4 -18 -5 -18 -15 5 l-11 25 0 -24 c-1 -20 -4 -22 -28
-16 -39 9 -47 20 -33 44 6 12 10 30 8 39 -3 12 -13 2 -32 -31 -16 -26 -26 -51
-23 -54 4 -3 167 -14 364 -24 197 -9 359 -18 361 -18 1 -1 2 -8 2 -16 0 -8 4
-15 9 -15 5 0 14 7 21 15 7 8 24 15 38 15 23 0 24 1 10 18 -9 9 -18 26 -20 37
-2 15 -11 20 -33 20 -17 1 -50 14 -75 31 -100 69 -195 104 -285 104 -67 0 -46
-19 27 -24 71 -5 113 -25 54 -26 -49 0 -37 -16 18 -24 21 -4 42 -9 47 -12 5
-3 9 2 9 10 0 10 6 13 16 9 12 -4 12 -8 4 -13 -12 -7 12 -21 45 -26 26 -5 55
-17 55 -24 0 -15 -50 -17 -70 -3 -17 12 -20 12 -20 -1 0 -20 -27 -21 -46 -1
-14 13 -13 15 2 15 24 0 14 8 -19 14 -18 3 -27 0 -27 -9 0 -18 -57 -38 -63
-22 -2 7 -2 0 0 -15 4 -26 2 -28 -30 -28 -29 0 -36 4 -41 26 -4 15 -20 55 -36
90 l-29 64 -83 -1 c-46 0 -92 -4 -103 -9z"/>
<path d="M2700 1833 c-46 -4 -81 -22 -44 -24 18 0 18 -1 -1 -9 -18 -8 -18 -9
5 -10 21 0 23 -2 10 -13 -27 -21 -5 -78 28 -75 10 1 50 0 91 0 71 -2 73 -3 66
-24 -17 -57 -17 -68 -2 -68 23 0 37 32 37 82 0 47 13 68 42 68 22 0 22 -1 3
44 l-15 36 -88 -2 c-48 -1 -107 -3 -132 -5z"/>
<path d="M3220 1743 c-27 -10 -52 -38 -76 -85 -13 -26 -24 -52 -24 -58 0 -6
34 -10 88 -10 83 0 90 2 114 28 27 29 48 64 48 81 0 6 -18 20 -40 31 -38 19
-79 24 -110 13z"/>
</g>
</svg>
